# xmcd CD database file
#
# Track frame offsets:
#	150
#	18773
#	38209
#	52221
#	70998
#	83296
#
# Disc length: 1302 seconds
#
# Revision: 0
# Processed by: cddbd v1.4PL0 Copyright (c) Steve Scherf et al.
# Submitted via: CDex 1.51
#
DISCID=42051406
DTITLE=Ms Marci - Drive Me Home Daddy
DYEAR=2003
DGENRE=Blues
TTITLE0=Married Man Blues
TTITLE1=Drive Me Home Daddy
TTITLE2=Mama Needs Chocolate
TTITLE3=Gambler's Blues
TTITLE4=Ain't Got the Scratch
TTITLE5=Bring it Home to Mama
EXTD=YEAR: 2003
EXTT0=
EXTT1=
EXTT2=
EXTT3=
EXTT4=
EXTT5=
PLAYORDER=
